# xmcd
#
# Track frame offsets:
#	150
#	43640
#	65255
#	88779
#	123763
#	151941
#	177420
#	207120
#	241041
#	287555
#	311618
#	334451
#
# Disc length: 4722 seconds
#
# Revision: 1
# Processed by: cddbd v1.5.2PL0 Copyright (c) Steve Scherf et al.
# Submitted via: audiograbber 1.83.01
#
DISCID=a012700c
DTITLE=Johnny Winter - Highway 61 Revisited
DYEAR=1980
DGENRE=Blues
TTITLE0=Hideaway
TTITLE1=Killing Floor
TTITLE2=E. Z. Rider
TTITLE3=Catfish Blues
TTITLE4=One Step At A Time
TTITLE5=Johnny B. Goode
TTITLE6=Stranger
TTITLE7=Highway 61 Revisited
TTITLE8=She Moves Me Man
TTITLE9=Jumpin' Jack Flash
TTITLE10=It's All Over Now
TTITLE11=The Crawl
EXTD=
EXTT0=
EXTT1=
EXTT2=
EXTT3=
EXTT4=
EXTT5=
EXTT6=
EXTT7=
EXTT8=
EXTT9=
EXTT10=
EXTT11=
PLAYORDER=
